    <svg
        xmlns="http://www.w3.org/2000/svg"
        xmlns:xlink="http://www.w3.org/1999/xlink"
        version="1.1"
        width="3162.0591039084843"
        height="1011.9480508310489"
        viewBox="0 0 3162.0591039084843 1011.9480508310489">
        <g transform="scale(8.102955195424213) translate(10, 10)">
            <defs id="SvgjsDefs1894">
                <linearGradient id="SvgjsLinearGradient1901">
                    <stop
                        id="SvgjsStop1902"
                        stop-color="#2d388a"
                        offset="0"></stop>
                    <stop
                        id="SvgjsStop1903"
                        stop-color="#00aeef"
                        offset="1"></stop>
                </linearGradient>
            </defs>
            <g
                id="SvgjsG1895"
                featureKey="monogramFeature-0"
                transform="matrix(2.499886835770475,0,0,2.499886835770475,-3.7498302536557127,-45.10341557617885)"
                fill="url(#SvgjsLinearGradient1901)">
                <path d="M2.7971 59.9981836 l-1.2971 0 l0 -41.956 l1.2971 0 l0 41.956 z M4.7346 59.9981836 l-1.2971 0 l0 -41.956 l1.2971 0 l0 41.956 z M6.6834 59.9981836 l-1.2971 0 l0 -41.956 l1.2971 0 l0 41.956 z M8.6208 59.9981836 l-1.2971 0 l0 -41.956 l1.2971 0 l0 41.956 z M26.207 31.748 c0 2.5943 -0.72312 5.1059 -2.1086 7.2918 c1.3799 2.1748 2.1086 4.6864 2.1086 7.2918 c0 7.5348 -6.1326 13.667 -13.667 13.667 l-3.2732 0 l0 -41.956 l1.2971 0 l0 0.038613 l1.9761 0 c7.5348 0 13.667 6.1326 13.667 13.667 z M10.564 27.145000000000003 l0 9.2069 l1.9761 0 c2.5391 0 4.6035 -2.0644 4.6035 -4.6035 s-2.0644 -4.6035 -4.6035 -4.6035 l-1.9761 0 z M10.564 37.649 l-0.000058594 0.6459 l1.9761 0 c3.61 0 6.5466 -2.9365 6.5466 -6.5466 s-2.9365 -6.5466 -6.5466 -6.5466 l-1.9761 0 l0 0.64582 l1.9761 0 c3.2567 0 5.9007 2.6495 5.9007 5.9006 c0 3.2567 -2.6495 5.9007 -5.9006 5.9007 l-1.9761 0 z M10.564 41.728 l0 9.207 l1.9761 0 c2.5391 0 4.6035 -2.0644 4.6035 -4.6035 c0 -0.64584 -0.13248 -1.264 -0.38636 -1.8491 c-0.7341 -1.6725 -2.39 -2.7544 -4.2171 -2.7544 l-1.9761 0 z M12.539 52.2318 l-1.9817 0 l0 0.64582 l1.9761 0 c3.61 0 6.5466 -2.9365 6.5466 -6.5466 c0 -0.9384 -0.19318 -1.8436 -0.57404 -2.6882 c-1.0598 -2.3459 -3.4002 -3.8584 -5.9669 -3.8584 l-1.9761 0 l0 0.64582 l1.9761 0 c2.3404 0 4.4656 1.3855 5.4039 3.5327 c0.33117 0.7452 0.49676 1.5456 0.49676 2.368 c0 3.2567 -2.6495 5.9007 -5.9006 5.9007 z M10.564 54.1749 l-0.00011719 0.64572 l1.9761 0 c4.6808 0 8.4894 -3.8086 8.4894 -8.4894 c0 -1.3303 -0.29807 -2.6053 -0.89418 -3.7921 c-0.58512 -1.1647 -1.4462 -2.1914 -2.4839 -2.9807 l-0.68442 -0.51885 l0.68442 -0.51885 c2.1472 -1.6228 3.3782 -4.0901 3.3782 -6.7728 c0 -4.6808 -3.8086 -8.4894 -8.4894 -8.4894 l-1.9761 0 l0 0.64582 l1.9761 0 c4.3275 0 7.8438 3.5216 7.8438 7.8438 c0 3.3119 -2.0644 6.1434 -4.9733 7.2918 c1.8657 0.73962 3.4278 2.1803 4.2834 4.0736 c0.45814 1.0157 0.69 2.0975 0.69 3.218 c0 4.3275 -3.5216 7.8438 -7.8438 7.8438 l-1.9761 0 z M10.563 56.1122 l-0.000058594 0.65664 l1.9761 0 c5.7461 0 10.427 -4.6808 10.427 -10.432 c0 -1.8326 -0.48574 -3.6376 -1.402 -5.2162 c-0.33117 -0.57404 -0.71754 -1.115 -1.1536 -1.6173 l-0.44713 -0.40295 l0.41953 -0.48574 c1.667 -1.9043 2.5833 -4.3441 2.5833 -6.8664 c0 -5.7516 -4.6753 -10.432 -10.427 -10.432 l-1.9761 0 l0 0.64031 l1.9761 0 c5.3929 0 9.7812 4.3938 9.7812 9.7866 c0 2.8206 -1.1813 5.4314 -3.2677 7.2918 c0.92178 0.82242 1.6835 1.816 2.2355 2.9144 c0.68442 1.3689 1.0322 2.8427 1.0322 4.3772 c0 5.3984 -4.3882 9.7866 -9.7812 9.7866 l-1.9761 0 z M24.914 46.331 c0 -2.4894 -0.73404 -4.885 -2.1251 -6.933 l-0.24287 -0.35877 l0.24287 -0.36428 c1.402 -2.0699 2.1307 -4.46 2.1307 -6.933 c0 -6.8226 -5.5474 -12.37 -12.37 -12.37 l-1.9761 0 l0 0.65133 l1.9761 0 c6.4638 0 11.724 5.2604 11.724 11.724 c0 2.655 -0.90528 5.2217 -2.5502 7.2918 c0.35877 0.45263 0.68442 0.92736 0.97146 1.4241 c1.0267 1.7774 1.5731 3.8086 1.5731 5.8675 c0 6.4638 -5.2604 11.724 -11.724 11.724 l-1.9761 0 l0 0.64582 l1.9761 0 c6.8226 0 12.37 -5.5474 12.37 -12.37 z"></path>
            </g>
            <g
                id="SvgjsG1896"
                featureKey="nameFeature-0"
                transform="matrix(1.5789905995336633,0,0,1.5789905995336633,75.62087803811771,-6.610978818213113)"
                fill="#fff">
                <path d="M14.92 40 l-10.88 0 l0 -29.16 l10.48 0 c5.28 -0.08 9.4 2.64 9.4 7.32 c0 0.68 -0.04 1.28 -0.4 2.4 c-0.16 0.56 -0.4 1.04 -0.72 1.52 c-0.6 0.96 -1.8 2.08 -3.32 2.76 c2.04 0.52 3.68 1.76 4.52 3.16 s1.2 2.8 1.2 4 c0 2.72 -1.16 4.84 -3.08 6.12 c-1.92 1.24 -4.4 1.88 -7.2 1.88 z M14.28 13.64 l-7.2 0 l0 10.16 l6.96 0 c2.28 0 3.96 -0.48 5.08 -1.48 s1.68 -2.24 1.68 -3.8 c0 -3.56 -3.2 -4.88 -6.52 -4.88 z M14.4 26.52 l-7.32 0 l0 10.68 l7.92 0 c3.16 0 7.08 -1.28 7.08 -5.4 c0 -2.52 -1.56 -3.92 -3.52 -4.6 c-1.36 -0.52 -2.68 -0.68 -4.16 -0.68 z M53.763999999999996 40 l-3.2 -7.44 l-15.88 0 l-3.2 7.44 l-3.12 0 l12.56 -29.16 l3.48 0 l12.6 29.16 l-3.24 0 z M49.403999999999996 29.759999999999998 l-6.8 -15.76 l-6.76 15.76 l13.56 0 z M83.488 40 l-3.72 0 l-8.64 -11.8 l-5.92 0 l0 11.8 l-3.08 0 l0 -29.16 l10.12 0 c3.44 0 6.2 0.96 7.8 2.56 s2.44 3.6 2.44 5.96 c0 4.92 -3.68 7.76 -8 8.32 z M65.208 13.719999999999999 l0 11.68 l6.76 0 c2.56 0 4.56 -0.72 5.72 -1.88 c1.12 -1.12 1.68 -2.52 1.68 -4.08 c0 -2.88 -1.76 -5.72 -7.32 -5.72 l-6.84 0 z M111.25199999999998 40 l-3.72 0 l-8.64 -11.8 l-5.92 0 l0 11.8 l-3.08 0 l0 -29.16 l10.12 0 c3.44 0 6.2 0.96 7.8 2.56 s2.44 3.6 2.44 5.96 c0 4.92 -3.68 7.76 -8 8.32 z M92.972 13.719999999999999 l0 11.68 l6.76 0 c2.56 0 4.56 -0.72 5.72 -1.88 c1.12 -1.12 1.68 -2.52 1.68 -4.08 c0 -2.88 -1.76 -5.72 -7.32 -5.72 l-6.84 0 z M117.65599999999999 40 l0 -29.16 l18.24 0 l0 2.84 l-15.16 0 l0 10.08 l13.88 0 l0 2.84 l-13.88 0 l0 10.56 l15.32 0 l0 2.84 l-18.4 0 z M151.42 40.28 c-2.76 0 -5.4 -1.04 -7.12 -2.56 c-1.8 -1.56 -2.96 -3.64 -3.2 -5.68 l2.88 -0.8 c0.32 1.72 1.2 3.16 2.64 4.36 c1.4 1.2 3 1.8 4.8 1.8 c1.68 0 3.24 -0.4 4.48 -1.28 c1.24 -0.84 2.04 -2.28 2.04 -4.04 c0 -2.04 -1.08 -3.36 -2.44 -4.16 c-0.96 -0.56 -1.8 -0.8 -2.76 -1 l-3.84 -0.76 c-0.8 -0.16 -1.64 -0.44 -2.56 -0.84 c-0.92 -0.44 -1.72 -0.96 -2.4 -1.64 c-1.36 -1.32 -2.04 -3 -2.04 -5.04 c0 -1.6 0.44 -3.04 1.32 -4.28 c0.88 -1.28 2 -2.2 3.4 -2.88 c1.4 -0.64 2.88 -0.96 4.52 -0.96 c6.28 0 9.04 3.88 9.64 7 l-2.8 0.88 c-0.48 -2.08 -2.36 -5.04 -6.88 -5.04 c-3.12 -0.08 -6.16 2.12 -6.12 5.16 c0 2.24 1.4 4.04 4.24 4.6 l3.68 0.72 c2.48 0.48 4.4 1.32 5.68 2.56 c0.88 0.8 1.52 1.72 1.92 2.68 c0.4 1 0.6 1.88 0.6 2.68 c0.04 5.12 -4.28 8.64 -9.68 8.52 z M168.18399999999997 40 l0 -29.16 l18.24 0 l0 2.84 l-15.16 0 l0 10.08 l13.88 0 l0 2.84 l-13.88 0 l0 10.56 l15.32 0 l0 2.84 l-18.4 0 z"></path>
            </g>
            <g
                id="SvgjsG1897"
                featureKey="nameFeature-1"
                transform="matrix(0.96736250471622,0,0,0.96736250471622,78.09185551784842,56.784651544275256)"
                fill="#fff">
                <path d="M14.92 40 l-10.88 0 l0 -29.16 l10.48 0 c5.28 -0.08 9.4 2.64 9.4 7.32 c0 0.68 -0.04 1.28 -0.4 2.4 c-0.16 0.56 -0.4 1.04 -0.72 1.52 c-0.6 0.96 -1.8 2.08 -3.32 2.76 c2.04 0.52 3.68 1.76 4.52 3.16 s1.2 2.8 1.2 4 c0 2.72 -1.16 4.84 -3.08 6.12 c-1.92 1.24 -4.4 1.88 -7.2 1.88 z M14.28 13.64 l-7.2 0 l0 10.16 l6.96 0 c2.28 0 3.96 -0.48 5.08 -1.48 s1.68 -2.24 1.68 -3.8 c0 -3.56 -3.2 -4.88 -6.52 -4.88 z M14.4 26.52 l-7.32 0 l0 10.68 l7.92 0 c3.16 0 7.08 -1.28 7.08 -5.4 c0 -2.52 -1.56 -3.92 -3.52 -4.6 c-1.36 -0.52 -2.68 -0.68 -4.16 -0.68 z M59.564 25.36 c0 2.76 -0.64 5.28 -1.88 7.56 c-1.28 2.28 -3.04 4.08 -5.28 5.4 c-2.28 1.32 -4.76 2 -7.56 2 c-2.04 0 -3.96 -0.4 -5.8 -1.16 c-1.8 -0.76 -3.36 -1.8 -4.64 -3.16 c-1.28 -1.28 -2.28 -2.84 -3.04 -4.68 c-0.72 -1.84 -1.12 -3.76 -1.12 -5.8 c0 -2.76 0.64 -5.28 1.92 -7.56 c1.24 -2.28 3 -4.12 5.28 -5.44 c2.24 -1.32 4.76 -1.96 7.52 -1.96 c2.04 0 3.96 0.36 5.8 1.12 c1.8 0.8 3.36 1.84 4.64 3.12 c1.28 1.36 2.32 2.92 3.04 4.72 c0.76 1.84 1.12 3.76 1.12 5.84 z M56.403999999999996 25.52 c0 -3.28 -1.2 -6.32 -3.2 -8.52 s-5 -3.6 -8.36 -3.6 c-2.16 0 -4.12 0.56 -5.88 1.6 c-1.76 1.12 -3.12 2.56 -4.08 4.36 c-0.96 1.84 -1.44 3.84 -1.44 6 c0 3.24 1.2 6.32 3.2 8.48 c2 2.2 5 3.6 8.32 3.6 c2.16 0 4.12 -0.56 5.88 -1.64 c1.8 -1.04 3.16 -2.52 4.12 -4.32 s1.44 -3.8 1.44 -5.96 z M93.848 25.36 c0 2.76 -0.64 5.28 -1.88 7.56 c-1.28 2.28 -3.04 4.08 -5.28 5.4 c-2.28 1.32 -4.76 2 -7.56 2 c-2.04 0 -3.96 -0.4 -5.8 -1.16 c-1.8 -0.76 -3.36 -1.8 -4.64 -3.16 c-1.28 -1.28 -2.28 -2.84 -3.04 -4.68 c-0.72 -1.84 -1.12 -3.76 -1.12 -5.8 c0 -2.76 0.64 -5.28 1.92 -7.56 c1.24 -2.28 3 -4.12 5.28 -5.44 c2.24 -1.32 4.76 -1.96 7.52 -1.96 c2.04 0 3.96 0.36 5.8 1.12 c1.8 0.8 3.36 1.84 4.64 3.12 c1.28 1.36 2.32 2.92 3.04 4.72 c0.76 1.84 1.12 3.76 1.12 5.84 z M90.688 25.52 c0 -3.28 -1.2 -6.32 -3.2 -8.52 s-5 -3.6 -8.36 -3.6 c-2.16 0 -4.12 0.56 -5.88 1.6 c-1.76 1.12 -3.12 2.56 -4.08 4.36 c-0.96 1.84 -1.44 3.84 -1.44 6 c0 3.24 1.2 6.32 3.2 8.48 c2 2.2 5 3.6 8.32 3.6 c2.16 0 4.12 -0.56 5.88 -1.64 c1.8 -1.04 3.16 -2.52 4.12 -4.32 s1.44 -3.8 1.44 -5.96 z M103.932 40 l-3.08 0 l0 -29.16 l3.08 0 l0 12.88 l0.2 0 l13.08 -12.88 l4.24 0 l-14.28 13.96 l14.96 15.2 l-4.32 0 l-13.68 -14.04 l-0.2 0 l0 14.04 z M130.096 40 l-3.08 0 l0 -29.16 l3.08 0 l0 12.88 l0.2 0 l13.08 -12.88 l4.24 0 l-14.28 13.96 l14.96 15.2 l-4.32 0 l-13.68 -14.04 l-0.2 0 l0 14.04 z M153.17999999999998 40 l0 -29.16 l18.24 0 l0 2.84 l-15.16 0 l0 10.08 l13.88 0 l0 2.84 l-13.88 0 l0 10.56 l15.32 0 l0 2.84 l-18.4 0 z M178.86399999999998 40 l0 -29.16 l18.24 0 l0 2.84 l-15.16 0 l0 10.08 l13.88 0 l0 2.84 l-13.88 0 l0 10.56 l15.32 0 l0 2.84 l-18.4 0 z M213.82799999999997 28.6 l-6.2 0 l0 11.4 l-3.08 0 l0 -29.16 l9.76 0 c7.12 -0.04 10.24 4.24 10.24 8.76 c0 2.52 -0.96 4.72 -2.68 6.36 c-1.76 1.64 -4.6 2.64 -8.04 2.64 z M214.06799999999998 13.719999999999999 l-6.44 0 l0 12.04 l6.28 0 c2.6 0 4.64 -0.76 5.8 -1.96 c1.16 -1.16 1.72 -2.6 1.72 -4.12 c0 -2.84 -1.64 -5.96 -7.36 -5.96 z M230.87199999999999 40 l0 -29.16 l3.08 0 l0 29.16 l-3.08 0 z M263.756 10.84 l3 0 l0 29.16 l-3.32 0 l-17.4 -24.8 l0 24.8 l-3.04 0 l0 -29.16 l3.56 0 l17.2 24.52 l0 -24.52 z M301.36 19.2 l-2.92 1.04 c-0.36 -1.04 -0.84 -2.12 -2 -3.44 c-0.56 -0.6 -1.2 -1.2 -1.92 -1.68 c-1.44 -1 -3.68 -1.72 -6.12 -1.72 c-2.2 0 -4.16 0.52 -5.92 1.64 s-3.12 2.56 -4.08 4.4 c-0.96 1.8 -1.44 3.76 -1.44 5.92 c0 3.28 1.12 6.32 3.04 8.52 c1.96 2.2 5 3.56 8.44 3.56 c2.6 0 5.08 -0.84 6.96 -2.28 s3.16 -3.76 3.32 -6.44 l-12.16 0 l0 -2.84 l15.44 0 l0 1.12 c0 3.68 -1.32 7 -3.6 9.4 c-2.32 2.4 -5.88 3.88 -10 3.88 c-4.36 0 -8.16 -1.6 -10.64 -4.24 s-3.96 -6.4 -3.96 -10.52 c0 -2.76 0.64 -5.32 1.92 -7.6 s3.04 -4.08 5.28 -5.4 s4.76 -1.96 7.48 -1.96 c3.44 0 6.48 0.96 8.56 2.64 c2.12 1.64 3.52 3.64 4.32 6 z"></path>
            </g>
        </g>
    </svg>

